<svg width="26" height="26" viewBox="0 0 26 26" fill="none" xmlns="http://www.w3.org/2000/svg">
<path d="M17.2911 8.0161C17.1749 7.89894 17.0366 7.80595 16.8843 7.74249C16.732 7.67903 16.5686 7.64635 16.4036 7.64635C16.2386 7.64635 16.0752 7.67903 15.9229 7.74249C15.7706 7.80595 15.6323 7.89894 15.5161 8.0161L12.6536 10.8911L9.7911 8.0161C9.55572 7.78072 9.23648 7.64849 8.9036 7.64849C8.57072 7.64849 8.25148 7.78072 8.0161 8.0161C7.78072 8.25148 7.64849 8.57072 7.64849 8.9036C7.64849 9.23648 7.78072 9.55572 8.0161 9.7911L10.8911 12.6536L8.0161 15.5161C7.89894 15.6323 7.80595 15.7706 7.74249 15.9229C7.67903 16.0752 7.64635 16.2386 7.64635 16.4036C7.64635 16.5686 7.67903 16.732 7.74249 16.8843C7.80595 17.0366 7.89894 17.1749 8.0161 17.2911C8.13231 17.4083 8.27056 17.5013 8.42288 17.5647C8.5752 17.6282 8.73859 17.6608 8.9036 17.6608C9.06862 17.6608 9.232 17.6282 9.38432 17.5647C9.53665 17.5013 9.6749 17.4083 9.7911 17.2911L12.6536 14.4161L15.5161 17.2911C15.6323 17.4083 15.7706 17.5013 15.9229 17.5647C16.0752 17.6282 16.2386 17.6608 16.4036 17.6608C16.5686 17.6608 16.732 17.6282 16.8843 17.5647C17.0366 17.5013 17.1749 17.4083 17.2911 17.2911C17.4083 17.1749 17.5013 17.0366 17.5647 16.8843C17.6282 16.732 17.6608 16.5686 17.6608 16.4036C17.6608 16.2386 17.6282 16.0752 17.5647 15.9229C17.5013 15.7706 17.4083 15.6323 17.2911 15.5161L14.4161 12.6536L17.2911 9.7911C17.4083 9.6749 17.5013 9.53665 17.5647 9.38432C17.6282 9.232 17.6608 9.06862 17.6608 8.9036C17.6608 8.73859 17.6282 8.5752 17.5647 8.42288C17.5013 8.27056 17.4083 8.13231 17.2911 8.0161ZM21.4911 3.8161C20.338 2.62222 18.9587 1.66995 17.4337 1.01484C15.9086 0.359723 14.2684 0.0148947 12.6086 0.000471959C10.9489 -0.0139507 9.30288 0.302321 7.76668 0.930832C6.23047 1.55934 4.83482 2.48751 3.66117 3.66117C2.48751 4.83482 1.55934 6.23047 0.930832 7.76668C0.302321 9.30288 -0.0139507 10.9489 0.000471959 12.6086C0.0148947 14.2684 0.359723 15.9086 1.01484 17.4337C1.66995 18.9587 2.62222 20.338 3.8161 21.4911C4.96919 22.685 6.3485 23.6373 7.87355 24.2924C9.39859 24.9475 11.0388 25.2923 12.6986 25.3067C14.3583 25.3212 16.0043 25.0049 17.5405 24.3764C19.0767 23.7479 20.4724 22.8197 21.646 21.646C22.8197 20.4724 23.7479 19.0767 24.3764 17.5405C25.0049 16.0043 25.3212 14.3583 25.3067 12.6986C25.2923 11.0388 24.9475 9.39859 24.2924 7.87355C23.6373 6.3485 22.685 4.96919 21.4911 3.8161ZM19.7286 19.7286C18.0937 21.3654 15.9418 22.3846 13.6396 22.6127C11.3374 22.8408 9.02736 22.2637 7.103 20.9796C5.17865 19.6955 3.75905 17.7839 3.08607 15.5705C2.41309 13.3571 2.52836 10.9788 3.41224 8.84083C4.29613 6.70289 5.89395 4.93754 7.93347 3.84555C9.97299 2.75357 12.328 2.40251 14.5974 2.85219C16.8667 3.30187 18.9099 4.52447 20.3789 6.31168C21.8479 8.09889 22.6518 10.3401 22.6536 12.6536C22.6581 13.9677 22.4018 15.2697 21.8998 16.4841C21.3977 17.6985 20.6597 18.8013 19.7286 19.7286Z" fill="#EF5858"/>
</svg>
